<?xml version="1.0" standalone="no"?>
<!DOCTYPE svg PUBLIC "-//W3C//DTD SVG 20010904//EN"
 "http://www.w3.org/TR/2001/REC-SVG-20010904/DTD/svg10.dtd">
<svg version="1.0" xmlns="http://www.w3.org/2000/svg"
 width="512.000000pt" height="512.000000pt" viewBox="0 0 512.000000 512.000000"
 preserveAspectRatio="xMidYMid meet">
<metadata>
Created by potrace 1.14, written by Peter Selinger 2001-2017
</metadata>
<g transform="translate(0.000000,512.000000) scale(0.100000,-0.100000)"
fill="#000000" stroke="none">
<path d="M255 4961 c-67 -17 -117 -65 -135 -129 -6 -22 -10 -187 -10 -418 0
-428 3 -450 67 -503 46 -38 100 -53 186 -51 40 1 89 1 110 1 l37 -1 0 -1625 0
-1625 530 0 530 0 0 -108 c0 -126 17 -196 57 -234 59 -57 68 -58 495 -58 242
0 407 4 431 11 39 11 77 45 105 94 15 27 17 75 17 450 l0 420 -25 35 c-34 50
-58 68 -99 80 -52 14 -808 13 -852 -1 -52 -18 -98 -67 -114 -123 -9 -30 -15
-92 -15 -158 l0 -108 -375 0 c-293 0 -375 3 -376 13 -1 16 -1 1500 0 1510 1 4
170 7 376 7 l375 0 0 -108 c0 -126 18 -200 58 -238 56 -54 59 -54 497 -54 445
0 449 1 505 60 48 51 52 96 48 520 -3 380 -3 385 -26 425 -13 22 -40 51 -60
65 l-37 25 -402 3 c-451 3 -467 2 -524 -58 -46 -48 -59 -100 -59 -235 l0 -105
-377 2 -376 3 0 553 c0 303 3 555 6 559 4 3 53 6 109 4 166 -3 249 40 278 144
3 11 5 200 5 420 0 371 -1 403 -19 435 -17 33 -69 89 -84 91 -4 0 -16 3 -27 7
-30 9 -795 12 -830 3z"/>
<path d="M1570 4415 l0 -185 1648 0 c1028 0 1660 4 1681 10 47 13 107 78 121
131 24 86 -36 196 -119 219 -23 6 -631 10 -1683 10 l-1648 0 0 -185z"/>
<path d="M3040 2585 l0 -185 914 0 c873 0 916 1 958 19 55 23 91 65 108 125
11 39 10 53 -4 97 -19 57 -58 101 -106 118 -24 8 -293 11 -951 11 l-919 0 0
-185z"/>
<path d="M3040 760 l0 -190 901 0 c649 0 913 3 946 12 58 14 114 68 131 127
29 95 -34 205 -131 230 -33 8 -303 11 -946 11 l-901 0 0 -190z"/>
</g>
</svg>
